<?xml version="1.0" encoding="utf-8"?>
<!-- Generator: Adobe Illustrator 20.1.0, SVG Export Plug-In . SVG Version: 6.00 Build 0)  -->
<svg version="1.1" id="Layer_1" xmlns="http://www.w3.org/2000/svg" xmlns:xlink="http://www.w3.org/1999/xlink" x="0px" y="0px"
	 viewBox="0 0 121 121" style="enable-background:new 0 0 121 121;" xml:space="preserve">
<style type="text/css">
	.st0{opacity:0.32;}
	.st1{fill:#2B2A2A;}
	.st2{fill:none;stroke:#2B2A2A;stroke-width:7;stroke-linecap:round;stroke-miterlimit:10;}
	.st3{fill:none;stroke:#2B2A2A;stroke-width:7;stroke-miterlimit:10;}
</style>
<g class="st0">
	<path class="st1" d="M60.5,10.5c-27.6,0-50,22.4-50,50s22.4,50,50,50s50-22.4,50-50S88.1,10.5,60.5,10.5L60.5,10.5z"/>
</g>
<g>
	<g>
		<circle class="st1" cx="36.3" cy="57.7" r="5.4"/>
		<path class="st2" d="M49.5,53.6c0,0-9-3.5-17.3,0"/>
		<circle class="st1" cx="76.9" cy="57.7" r="5.4"/>
		<path class="st2" d="M90.1,53.6c0,0-9-3.5-17.3,0"/>
	</g>
	<path class="st2" d="M51.8,77.8c0,0,9,3.5,17.3,0"/>
</g>
<g>
	<path class="st3" d="M60.5,10.5c-27.6,0-50,22.4-50,50s22.4,50,50,50s50-22.4,50-50S88.1,10.5,60.5,10.5L60.5,10.5z"/>
</g>
</svg>
