<svg width="26" height="26" viewBox="0 0 26 26" fill="none" xmlns="http://www.w3.org/2000/svg">
<circle cx="13" cy="13" r="12" stroke="#CCCCCC"/>
<circle cx="12.7815" cy="10" r="3" fill="#CCCCCC" stroke="#CCCCCC"/>
<path fill-rule="evenodd" clip-rule="evenodd" d="M5 22.1353C5.84015 18.6164 9.00529 16 12.7815 16C16.5578 16 19.7229 18.6164 20.563 22.1353C18.4679 23.9217 15.7506 25 12.7815 25C9.81241 25 7.09514 23.9217 5 22.1353Z" fill="#CCCCCC"/>
<path d="M5 22.1353L4.51367 22.0192L4.44255 22.3171L4.67559 22.5158L5 22.1353ZM20.563 22.1353L20.8874 22.5158L21.1205 22.3171L21.0494 22.0192L20.563 22.1353ZM5.48633 22.2514C6.27397 18.9524 9.24196 16.5 12.7815 16.5V15.5C8.76862 15.5 5.40633 18.2803 4.51367 22.0192L5.48633 22.2514ZM12.7815 16.5C16.3211 16.5 19.2891 18.9524 20.0767 22.2514L21.0494 22.0192C20.1567 18.2804 16.7944 15.5 12.7815 15.5V16.5ZM20.2386 21.7548C18.2306 23.467 15.6273 24.5 12.7815 24.5V25.5C15.874 25.5 18.7052 24.3764 20.8874 22.5158L20.2386 21.7548ZM12.7815 24.5C9.93572 24.5 7.33248 23.467 5.32441 21.7548L4.67559 22.5158C6.85781 24.3764 9.68909 25.5 12.7815 25.5V24.5Z" fill="#CCCCCC"/>
</svg>
