<?xml version="1.0" encoding="utf-8"?>
<!-- Generator: Adobe Illustrator 20.1.0, SVG Export Plug-In . SVG Version: 6.00 Build 0)  -->
<svg version="1.1" id="Layer_1" xmlns="http://www.w3.org/2000/svg" xmlns:xlink="http://www.w3.org/1999/xlink" x="0px" y="0px"
	 viewBox="0 0 180 180" style="enable-background:new 0 0 180 180;" xml:space="preserve">
<style type="text/css">
	.st0{fill:#FFFFFF;}
</style>
<g>
	<circle class="st0" cx="90" cy="90" r="19.3"/>
</g>
<g>
	<path class="st0" d="M90,156c-3.3,0-6-2.7-6-6V87.4c0-3.3,2.7-6,6-6s6,2.7,6,6V150C96,153.3,93.3,156,90,156z"/>
</g>
<g>
	<path class="st0" d="M47.6,132.4"/>
</g>
<g>
	<path class="st0" d="M132.4,132.4"/>
</g>
<g>
	<path class="st0" d="M132.4,138.4c-1.5,0-3.1-0.6-4.3-1.8c-2.3-2.4-2.3-6.2,0-8.5C138.4,118,144,104.5,144,90c0-29.8-24.2-54-54-54
		c-29.8,0-54,24.2-54,54c0,14.5,5.6,28,15.8,38.1c2.4,2.3,2.4,6.1,0,8.5c-2.3,2.4-6.1,2.4-8.5,0C30.9,124.3,24,107.7,24,90
		c0-36.4,29.6-66,66-66s66,29.6,66,66c0,17.7-6.9,34.3-19.4,46.7C135.5,137.8,133.9,138.4,132.4,138.4z"/>
</g>
<g>
	<path class="st0" d="M62.4,123.6c-1.5,0-3.1-0.6-4.2-1.8C49.7,113.4,45,102.1,45,90c0-24.9,20.2-45.1,45.1-45.1
		c24.9,0,45.1,20.2,45.1,45.1c0,12-4.7,23.4-13.2,31.8c-2.3,2.3-6.1,2.3-8.5,0c-2.3-2.3-2.3-6.1,0-8.5c6.2-6.2,9.6-14.5,9.6-23.4
		c0-18.3-14.8-33.1-33.1-33.1S57,71.7,57,90c0,8.8,3.4,17.1,9.6,23.4c2.3,2.3,2.3,6.1,0,8.5C65.5,123,63.9,123.6,62.4,123.6z"/>
</g>
<g>
	<path class="st0" d="M62.4,117.6"/>
</g>
<g>
	<path class="st0" d="M117.6,117.6"/>
</g>
<g>
	<path class="st0" d="M30,150"/>
</g>
<g>
	<path class="st0" d="M62.4,117.6"/>
</g>
</svg>
