<?xml version="1.0" encoding="utf-8"?>
<!-- Generator: Adobe Illustrator 20.1.0, SVG Export Plug-In . SVG Version: 6.00 Build 0)  -->
<svg version="1.1" id="Layer_1" xmlns="http://www.w3.org/2000/svg" xmlns:xlink="http://www.w3.org/1999/xlink" x="0px" y="0px"
	 viewBox="0 0 121 121" style="enable-background:new 0 0 121 121;" xml:space="preserve">
<style type="text/css">
	.st0{fill:none;stroke:#FFFFFF;stroke-width:7;stroke-miterlimit:10;}
</style>
<g>
	<g>
		<path class="st0" d="M60.5,15.5c-24.8,0-45,20.2-45,45s20.2,45,45,45s45-20.2,45-45S85.3,15.5,60.5,15.5L60.5,15.5z"/>
	</g>
	<line class="st0" x1="60.5" y1="15.5" x2="60.5" y2="105.5"/>
	<line class="st0" x1="105.5" y1="60.5" x2="15.5" y2="60.5"/>
	<g>
		<path class="st0" d="M60.5,15.5c-12.4,0-22.5,20.2-22.5,45s10.1,45,22.5,45S83,85.3,83,60.5S72.9,15.5,60.5,15.5L60.5,15.5z"/>
	</g>
	<path class="st0" d="M27,30.5c8.2,4.6,20.2,7.5,33.5,7.5s25.3-2.9,33.5-7.5"/>
	<path class="st0" d="M94,90.7c-8.2-4.6-20.2-7.5-33.5-7.5S35.2,86.1,27,90.7"/>
	<path class="st0" d="M94,90.5"/>
</g>
</svg>
